PathFileType	4	(X/Y/Z)	C:\Users\Basilio\Documents\Thesis Gigler\squatting_fais\c3dfiles\076\SJ_pre4\markers_experimental.trc
DataRate	CameraRate	NumFrames	NumMarkers	Units	OrigDataRate	OrigDataStartFrame	OrigNumFrames
200.000000	200.000000	4	61	mm	200.000000	233	1864
Frame#	Time	FHD			LBHD			RBHD			C7			T10			CLAV			LSHO			LUUPA			LMUPA			LDUPA			LLEP			LMEP			LRAD			LUL			LRFIN			RSHO			RUPA1			RMUPA			RDUPA			RLEP			RMEP			RRAD			RUL			RUFIN			LASI			RASI			USACR			LSACR			RSACR			LTHI1			LTHI2			LTHI3			LTHI4			LLFC			LMFC			LTIB1			LTIB2			LTIB3			LTIB4			LLMAL			LMMAL			LHEE			LMT1			LMT2			LMT5			RTHI			RTHI2			RTHI3			RTHI4			RLFC			RMFC			RTIB1			RTIB2			RTIB3			RTIB4			RLMAL			RMMAL			RHEE			RMT1			RMT2			RMT5			
		X1	Y1	Z1	X2	Y2	Z2	X3	Y3	Z3	X4	Y4	Z4	X5	Y5	Z5	X6	Y6	Z6	X7	Y7	Z7	X8	Y8	Z8	X9	Y9	Z9	X10	Y10	Z10	X11	Y11	Z11	X12	Y12	Z12	X13	Y13	Z13	X14	Y14	Z14	X15	Y15	Z15	X16	Y16	Z16	X17	Y17	Z17	X18	Y18	Z18	X19	Y19	Z19	X20	Y20	Z20	X21	Y21	Z21	X22	Y22	Z22	X23	Y23	Z23	X24	Y24	Z24	X25	Y25	Z25	X26	Y26	Z26	X27	Y27	Z27	X28	Y28	Z28	X29	Y29	Z29	X30	Y30	Z30	X31	Y31	Z31	X32	Y32	Z32	X33	Y33	Z33	X34	Y34	Z34	X35	Y35	Z35	X36	Y36	Z36	X37	Y37	Z37	X38	Y38	Z38	X39	Y39	Z39	X40	Y40	Z40	X41	Y41	Z41	X42	Y42	Z42	X43	Y43	Z43	X44	Y44	Z44	X45	Y45	Z45	X46	Y46	Z46	X47	Y47	Z47	X48	Y48	Z48	X49	Y49	Z49	X50	Y50	Z50	X51	Y51	Z51	X52	Y52	Z52	X53	Y53	Z53	X54	Y54	Z54	X55	Y55	Z55	X56	Y56	Z56	X57	Y57	Z57	X58	Y58	Z58	X59	Y59	Z59	X60	Y60	Z60	X61	Y61	Z61	

234	1.165	-202.6736602783204	1614.801513671875	-904.9826660156252	-361.5950622558594	1539.99853515625	-959.3990478515627	-302.1835937500001	1538.456787109375	-818.6035156250002	-385.640350341797	1419.247314453125	-905.9117431640627	-398.7802124023439	1097.130004882813	-923.6773071289065	-249.5843811035157	1346.441528320313	-904.7092895507815	-309.6119079589844	1372.605224609375	-1079.26416015625	-309.9012145996094	1213.071899414063	-1205.47705078125	-293.1823120117188	1170.24609375	-1184.789428710938	-312.2433776855469	1153.058837890625	-1240.331787109375	-320.7822265625001	1103.668334960938	-1268.172119140625	-400.815155029297	1088.6279296875	-1236.224975585938	-278.8194885253907	935.4426269531252	-1084.949340820313	-324.1016235351563	916.967712402344	-1111.350463867188	-277.2920837402344	889.464782714844	-1146.4423828125	-322.5726318359376	1359.967651367188	-738.8916625976564	-373.7528076171876	1214.157470703125	-609.6532592773439	-339.9647216796876	1176.670288085938	-608.8394775390626	-382.9547119140626	1153.512573242188	-573.3051757812501	-375.9409790039063	1083.57666015625	-553.2908325195314	-442.6397705078126	1068.88427734375	-609.8406982421876	-337.7386779785157	919.746520996094	-727.5432739257814	-283.8176269531251	938.8186645507815	-737.5682373046876	-293.6468200683594	893.1970825195315	-683.2214355468751	-227.6017303466797	909.325866699219	-1019.957336425781	-233.9652252197266	913.502868652344	-811.6304931640627	-395.5853881835939	993.0013427734377	-921.232849121094	-401.9107360839845	964.898132324219	-950.0174560546877	-404.0191650390626	963.6096191406252	-893.4478759765627	-319.3375854492188	769.7122802734377	-1095.697143554688	-299.1632995605469	686.7294921875001	-1099.67626953125	-251.5699157714844	682.4193725585939	-1085.229125976563	-335.9422912597657	638.0412597656251	-1093.043334960938	-352.9403686523438	477.8854370117189	-1079.907470703125	-326.6148376464844	458.3202514648439	-965.7485961914065	-329.4042053222657	325.8034057617188	-1026.640991210938	-350.3956604003907	280.9932250976563	-1100.199951171875	-323.6800842285157	279.4951477050782	-1062.810913085938	-338.8385620117188	200.0153961181641	-1039.605102539063	-393.7805175781251	81.58560943603517	-1109.431518554688	-369.7573852539063	86.63675689697267	-1026.359008789063	-449.1937866210939	42.88581848144532	-1068.7119140625	-237.9176025390626	53.65430450439455	-1050.228149414063	-232.7203216552735	54.14858627319337	-1088.815307617188	-250.5003509521485	43.15987014770509	-1139.80224609375	-345.2865600585938	676.6390380859376	-743.7480468750001	-313.9258422851563	617.4851684570314	-739.5739746093751	-279.4183654785157	617.5407714843751	-745.1481933593751	-346.5118408203126	543.4463500976564	-754.5277099609376	-352.1546325683594	481.301483154297	-758.0750122070314	-316.7164001464844	469.5848083496095	-870.9279785156252	-317.4443054199219	346.2483215332032	-769.5525512695315	-390.5854797363282	268.5865173339844	-746.2525634765626	-343.8844909667969	264.2739562988282	-753.0325317382814	-328.3475952148438	216.8794403076172	-782.8658447265627	-392.294647216797	79.09893798828126	-751.7189941406251	-363.8462219238282	90.27294921875001	-832.7218017578127	-443.5758361816407	50.33887481689455	-799.974060058594	-235.4249877929688	51.9396324157715	-798.206481933594	-235.5208129882813	55.99760818481447	-753.2562866210939	-265.5394592285157	34.89251327514649	-701.5339355468751	
235	1.17	-203.0860443115235	1615.002319335938	-904.9071044921877	-362.0132751464844	1539.91796875	-959.358093261719	-302.5767517089844	1538.52099609375	-818.559753417969	-385.7142639160157	1419.182861328125	-905.9231567382815	-398.653045654297	1097.07421875	-923.6925048828127	-249.556381225586	1346.4970703125	-904.607849121094	-309.3529052734376	1372.614379882813	-1079.154663085938	-309.5478210449219	1213.090942382813	-1205.364135742188	-292.8360900878907	1170.302612304688	-1184.685180664063	-311.8833923339844	1153.10107421875	-1240.293334960938	-320.3886718750001	1103.671142578125	-1268.171997070313	-400.4313049316407	1088.635375976563	-1236.423095703125	-278.6567687988282	935.4366455078127	-1084.924194335938	-323.7703857421876	916.9238891601565	-1111.39208984375	-276.9850769042969	889.4143676757815	-1146.447265625	-322.7743530273438	1359.94775390625	-738.8234863281251	-373.9662170410157	1214.123657226563	-609.5918579101564	-340.2129211425782	1176.582641601563	-608.8066406250001	-383.2722167968751	1153.41455078125	-573.3401489257814	-376.2540283203126	1083.479248046875	-553.2902221679689	-442.8480834960939	1068.629272460938	-609.9391479492189	-337.7398681640626	919.6553955078127	-727.5263061523439	-283.8433532714844	938.7935791015627	-737.5195312500001	-293.7640075683594	893.1265258789065	-683.2747802734376	-227.4388122558594	909.1562500000002	-1019.916748046875	-233.9935607910157	913.503601074219	-811.5634765625002	-395.5126037597657	992.9151000976565	-921.300476074219	-401.766082763672	964.8510742187502	-950.1195068359377	-403.9660034179689	963.5852050781252	-893.5095214843752	-319.1724548339844	769.7586059570315	-1095.767822265625	-298.9066467285157	686.6694335937501	-1099.683715820313	-251.3918914794922	682.4331665039064	-1085.21875	-335.7616882324219	638.0978393554689	-1093.088989257813	-352.7813415527344	477.874237060547	-1079.9052734375	-326.4979858398438	458.3176879882814	-965.792907714844	-329.3141174316407	325.7420959472657	-1026.666625976563	-350.2919006347657	280.9835815429688	-1100.206420898438	-323.6068115234376	279.4713745117188	-1062.809204101563	-338.7601623535157	199.9225463867188	-1039.658935546875	-393.7333984375001	81.56713867187501	-1109.420776367188	-369.7465209960938	86.58029174804689	-1026.370483398438	-449.1511840820314	42.84922027587891	-1068.732666015625	-237.9282379150391	53.65892028808595	-1050.207763671875	-232.6709747314454	54.12940216064455	-1088.782470703125	-251.2402954101563	43.41369247436524	-1140.02099609375	-345.2986145019532	676.6376953125001	-743.7924194335939	-313.9805297851563	617.4473876953126	-739.6149291992189	-279.4474487304688	617.5803833007814	-745.1182250976564	-346.5324707031251	543.4569702148439	-754.5444946289064	-352.1915893554688	481.2898559570314	-758.0602416992189	-316.6795349121094	469.6160583496095	-870.8890380859377	-317.4709167480469	346.2471923828126	-769.5701904296877	-390.5831909179689	268.5996704101563	-746.2625122070314	-343.8566589355469	264.3052368164063	-753.0002441406251	-328.3357238769532	216.8620605468751	-782.8533325195315	-392.3025817871095	79.08837127685548	-751.7349853515626	-363.8993835449219	90.29579925537111	-832.7407836914065	-443.5451660156251	50.33348083496095	-799.9702758789065	-235.4360351562501	51.90901184082033	-798.228454589844	-235.4662628173829	56.01228713989259	-753.2565917968751	-265.5473937988282	34.89889907836915	-701.5372924804689	
236	1.175	-203.6062622070313	1615.271606445313	-904.7600708007815	-362.0178833007813	1539.692016601563	-959.2744750976565	-302.9096984863282	1538.518310546875	-818.4648437500002	-385.7478027343751	1419.1328125	-905.8709106445315	-398.6239624023439	1097.086303710938	-923.7554931640627	-249.5325317382813	1346.527099609375	-904.481140136719	-309.3206176757813	1372.606323242188	-1079.126342773438	-309.1186523437501	1213.072875976563	-1205.270141601563	-292.3999633789063	1170.329833984375	-1184.593505859375	-311.5238342285157	1153.128173828125	-1240.225463867188	-319.9933471679688	1103.7216796875	-1268.156005859375	-400.0416564941407	1088.708374023438	-1236.37109375	-278.4049682617188	935.4184570312502	-1084.880859375	-323.4433593750001	916.9537353515627	-1111.43310546875	-276.6475830078126	889.4035644531252	-1146.474487304688	-322.9076538085938	1359.906616210938	-738.7003173828126	-374.1916503906251	1214.065185546875	-609.6135253906251	-340.5160217285157	1176.475341796875	-608.7415771484376	-383.5952148437501	1153.26611328125	-573.3930053710939	-376.5085144042969	1083.37451171875	-553.3482055664064	-442.9819946289064	1068.534301757813	-610.0863037109376	-337.8056945800782	919.592224121094	-727.5906982421876	-283.8963012695313	938.7456054687502	-737.5097045898439	-293.8949279785157	893.040954589844	-683.2921752929689	-227.2649383544922	909.1564941406252	-1019.870300292969	-233.8981933593751	913.4666137695315	-811.4888305664065	-395.3703002929689	992.928405761719	-921.340515136719	-401.6301574707032	964.8779296875002	-950.1516723632815	-403.8379516601564	963.563171386719	-893.6088867187502	-318.9515991210938	769.6792602539065	-1095.70849609375	-298.6548767089844	686.6544799804689	-1099.695922851563	-251.2095031738282	682.4239501953126	-1085.250366210938	-335.4663391113282	638.0828247070314	-1093.150390625	-352.6259155273438	477.886932373047	-1079.928588867188	-326.4000549316407	458.322723388672	-965.8350219726565	-329.1462402343751	325.7565307617188	-1026.6494140625	-350.1733703613282	280.9357604980469	-1100.212890625	-323.5268554687501	279.4289245605469	-1062.811645507813	-338.7081298828126	199.9306640625001	-1039.612182617188	-393.7621154785157	81.60949707031251	-1109.435913085938	-369.7759094238282	86.61346435546876	-1026.364624023438	-449.1734924316407	42.88516998291016	-1068.739624023438	-237.932601928711	53.67823791503908	-1050.213745117188	-232.7182006835938	54.15431976318361	-1088.83056640625	-250.4525909423829	43.09477996826173	-1139.796142578125	-345.3448486328126	676.6311035156251	-743.8322753906251	-313.9817810058594	617.4828491210939	-739.6152343750001	-279.5201110839844	617.5172119140626	-745.1248168945314	-346.5979003906251	543.4186401367189	-754.5765380859376	-352.2321472167969	481.2734375000001	-758.1411132812501	-316.6603698730469	469.6013793945314	-870.9107666015627	-317.5447998046876	346.2351074218751	-769.582946777344	-390.6199951171876	268.5952453613282	-746.2959594726564	-343.8902587890626	264.2783508300782	-753.0446166992189	-328.3327941894532	216.8502502441407	-782.8523559570315	-392.302703857422	79.08276367187501	-751.7168579101564	-363.7763366699219	90.29621887207033	-832.716247558594	-443.5511779785157	50.28678131103517	-799.9813232421877	-235.469223022461	51.92066192626955	-798.2301025390627	-235.4984893798829	56.01379394531251	-753.2473754882814	-265.5675659179688	34.84877395629884	-701.5618286132814	
237	1.18	-204.0866851806641	1615.50439453125	-904.6889648437502	-362.3846435546876	1539.5712890625	-959.2127685546877	-303.2922058105469	1538.471435546875	-818.427917480469	-385.7930603027345	1419.126586914063	-905.8530273437502	-398.6004028320314	1097.011474609375	-923.7629394531252	-249.5664825439454	1346.549682617188	-904.3572998046877	-309.1659851074219	1372.623901367188	-1079.087890625	-308.8075561523438	1213.077270507813	-1205.200927734375	-292.0399169921876	1170.3291015625	-1184.543701171875	-311.0712890625001	1153.144165039063	-1240.146728515625	-318.9102783203126	1103.639404296875	-1267.852783203125	-399.603729248047	1088.71728515625	-1236.542602539063	-278.2118835449219	935.3973388671877	-1084.9013671875	-322.9197387695313	917.021911621094	-1111.451049804688	-276.4521179199219	889.403503417969	-1146.453369140625	-323.0810852050782	1359.843139648438	-738.6092529296876	-374.4715576171876	1213.935546875	-609.5833129882814	-340.7747497558594	1176.381103515625	-608.7008666992189	-383.9134521484376	1153.127319335938	-573.4411010742189	-376.7992553710938	1083.305297851563	-553.4066162109376	-443.1157836914064	1068.432373046875	-610.3216552734376	-337.9157714843751	919.5556640625002	-727.6304321289064	-283.9858398437501	938.7055664062502	-737.5530395507814	-294.0386657714844	892.9667968750002	-683.3146362304689	-227.1078796386719	909.0178222656252	-1019.81591796875	-233.8065643310547	913.4688110351565	-811.4185180664065	-395.362762451172	992.8652343750002	-921.392761230469	-401.5011291503907	964.841003417969	-950.2769165039065	-403.775848388672	963.4909667968752	-893.6750488281252	-318.6886291503907	769.7761230468752	-1095.887451171875	-298.3861999511719	686.5561523437501	-1099.685302734375	-251.2053375244141	682.3322753906251	-1085.212768554688	-335.1811218261719	638.0170898437501	-1093.176513671875	-352.4993286132813	477.8245544433595	-1079.962768554688	-326.2840270996094	458.3009338378907	-965.7921142578127	-329.0725708007813	325.7485046386719	-1026.627563476563	-350.0343322753907	280.8934326171876	-1100.21923828125	-323.4733581542969	279.4241333007813	-1062.834106445313	-339.0657958984376	200.0175323486329	-1039.822265625	-393.7784423828126	81.57634735107423	-1109.420532226563	-369.7501220703126	86.61756134033205	-1026.3466796875	-449.157684326172	42.88408279418946	-1068.754638671875	-237.9346466064454	53.63059234619142	-1050.211181640625	-232.6670379638672	54.15016555786134	-1088.772216796875	-250.6270141601563	43.15047454833985	-1139.797973632813	-345.3603820800782	676.6137695312501	-743.8499145507814	-313.9931335449219	617.4639282226564	-739.6315917968751	-279.4996032714844	617.5091552734376	-745.1069946289064	-346.6120605468751	543.4191894531251	-754.5798950195314	-352.2394409179688	481.2965393066407	-758.1351318359376	-316.4998168945313	469.5711364746095	-870.8388671875002	-317.4729919433594	346.2084045410157	-769.5445556640627	-390.6087646484376	268.5972900390626	-746.2987060546876	-343.9325866699219	264.2782592773438	-753.0292358398439	-328.3117065429688	216.8134155273438	-782.835876464844	-392.2941894531251	79.10350799560548	-751.7156982421876	-363.8612670898438	90.26951599121095	-832.7539672851565	-443.5006408691407	50.273250579834	-800.0137329101565	-235.4085845947266	51.90084838867189	-798.1990966796877	-235.5118560791016	55.98601531982423	-753.2551269531251	-265.5248718261719	34.94823837280274	-701.5120849609376	
